Results
version=1
nRows=21
nColumns=27
inDegrees=yes
endheader
time	r_x	r_y	r_z	t_x	t_y	t_z	sternoclavicular_r2	sternoclavicular_r3	unrotscap_r3	unrotscap_r2	acromioclavicular_r2	acromioclavicular_r3	acromioclavicular_r1	unrothum_r1	unrothum_r3	unrothum_r2	elv_angle	shoulder_elv	shoulder1_r2	shoulder_rot	elbow_flexion	pro_sup	deviation	flexion	wrist_hand_r1	wrist_hand_r3
      3.75000000	     90.00000023	      0.00000039	     10.00000002	     -0.41431074	      0.36004443	      0.29490350	     -3.72194778	      1.57644141	     -1.57644141	      3.72194778	     -0.75361871	      6.09048136	      2.73762946	     -2.73762946	     -6.09048136	      0.75361871	    -10.44731776	     15.37991502	     10.44731776	     -6.91838328	     97.39807634	     16.65932321	     -0.00000052	      0.00000000	     -0.00000071	      0.00000000
      3.75500000	     90.00000023	      0.00000039	     10.00000002	     -0.41420135	      0.36006381	      0.29486562	     -3.71950993	      1.57540886	     -1.57540886	      3.71950993	     -0.75312510	      6.08649215	      2.73583633	     -2.73583633	     -6.08649215	      0.75312510	    -10.61338942	     15.36984130	     10.61338942	     -7.07496809	     97.44386303	     17.36556364	     -0.00000052	      0.00000000	     -0.00000071	      0.00000000
      3.76000000	     90.00000023	      0.00000039	     10.00000002	     -0.41404098	      0.36001607	      0.29491136	     -3.73840644	      1.58341253	     -1.58341253	      3.73840644	     -0.75695126	      6.11741382	      2.74973541	     -2.74973541	     -6.11741382	      0.75695126	    -10.84589669	     15.44792588	     10.84589669	     -7.00398486	     97.46709688	     17.52131395	     -0.00000052	      0.00000000	     -0.00000071	      0.00000000
      3.76500000	     90.00000023	      0.00000039	     10.00000002	     -0.41479386	      0.35929933	      0.29509749	     -3.64713850	      1.54475573	     -1.54475573	      3.64713850	     -0.73847136	      5.96806575	      2.68260448	     -2.68260448	     -5.96806575	      0.73847136	    -10.68686171	     15.07078646	     10.68686171	     -7.09941420	     97.40284247	     17.75847115	     -0.00000052	      0.00000000	     -0.00000071	      0.00000000
      3.77000000	     90.00000023	      0.00000039	     10.00000002	     -0.41469243	      0.35929503	      0.29498946	     -3.64451707	      1.54364542	     -1.54364542	      3.64451707	     -0.73794057	      5.96377612	      2.68067632	     -2.68067632	     -5.96377612	      0.73794057	    -10.95869556	     15.05995414	     10.95869556	     -7.13377078	     97.43756752	     18.13255918	     -0.00000052	      0.00000000	     -0.00000071	      0.00000000
      3.77500000	     90.00000023	      0.00000039	     10.00000002	     -0.41477042	      0.35932222	      0.29494320	     -3.64519809	      1.54393387	     -1.54393387	      3.64519809	     -0.73807846	      5.96489053	      2.68117724	     -2.68117724	     -5.96489053	      0.73807846	    -10.87397755	     15.06276827	     10.87397755	     -7.27116111	     97.42692277	     18.71810534	     -0.00000052	      0.00000000	     -0.00000071	      0.00000000
      3.78000000	     90.00000023	      0.00000039	     10.00000002	     -0.41478977	      0.35933667	      0.29498318	     -3.64438514	      1.54358954	     -1.54358954	      3.64438514	     -0.73791386	      5.96356024	      2.68057929	     -2.68057929	     -5.96356024	      0.73791386	    -11.01048906	     15.05940898	     11.01048906	     -7.32766575	     97.37881918	     18.95559105	     -0.00000052	      0.00000000	     -0.00000071	      0.00000000
      3.78500000	     90.00000023	      0.00000039	     10.00000002	     -0.41475746	      0.35944998	      0.29491322	     -3.66441595	      1.55207364	     -1.55207364	      3.66441595	     -0.74196969	      5.99633804	      2.69531268	     -2.69531268	     -5.99633804	      0.74196969	    -11.21829332	     15.14218073	     11.21829332	     -7.19952776	     97.38358486	     18.53402233	     -0.00000052	      0.00000000	     -0.00000071	      0.00000000
      3.79000000	     90.00000023	      0.00000039	     10.00000002	     -0.41492682	      0.35936994	      0.29511142	     -3.59861130	      1.52420190	     -1.52420190	      3.59861130	     -0.72864559	      5.88865732	      2.64691094	     -2.64691094	     -5.88865732	      0.72864559	    -10.99492739	     14.87026128	     10.99492739	     -7.43247698	     97.24731760	     19.45670619	     -0.00000052	      0.00000000	     -0.00000071	      0.00000000
      3.79500000	     90.00000023	      0.00000039	     10.00000002	     -0.41413789	      0.35966997	      0.29481653	     -3.68936468	      1.56264075	     -1.56264075	      3.68936468	     -0.74702130	      6.03716337	      2.71366339	     -2.71366339	     -6.03716337	      0.74702130	    -11.90359780	     15.24527441	     11.90359780	     -7.18937121	     97.42784404	     18.91653566	     -0.00000052	      0.00000000	     -0.00000071	      0.00000000
      3.80000000	     90.00000023	      0.00000039	     10.00000002	     -0.41419181	      0.35964595	      0.29492213	     -3.65041254	      1.54614246	     -1.54614246	      3.65041254	     -0.73913428	      5.97342329	      2.68501266	     -2.68501266	     -5.97342329	      0.73913428	    -11.99478379	     15.08431554	     11.99478379	     -7.41825994	     97.38425001	     19.54358335	     -0.00000052	      0.00000000	     -0.00000071	      0.00000000
      3.80500000	     90.00000023	      0.00000039	     10.00000002	     -0.41416931	      0.35965074	      0.29484174	     -3.67230423	      1.55541475	     -1.55541475	      3.67230423	     -0.74356691	      6.00924618	      2.70111480	     -2.70111480	     -6.00924618	      0.74356691	    -12.29740395	     15.17477685	     12.29740395	     -7.30444028	     97.40499733	     19.38097790	     -0.00000052	      0.00000000	     -0.00000071	      0.00000000
      3.81000000	     90.00000023	      0.00000039	     10.00000002	     -0.41403073	      0.35970474	      0.29473183	     -3.71614045	      1.57398170	     -1.57398170	      3.71614045	     -0.75244285	      6.08097843	      2.73335795	     -2.73335795	     -6.08097843	      0.75244285	    -12.52323952	     15.35591785	     12.52323952	     -7.07899664	     97.37299470	     18.31645208	     -0.00000052	      0.00000000	     -0.00000071	      0.00000000
      3.81500000	     90.00000023	      0.00000039	     10.00000002	     -0.41402483	      0.35964445	      0.29464795	     -3.71691635	      1.57431034	     -1.57431034	      3.71691635	     -0.75259995	      6.08224808	      2.73392865	     -2.73392865	     -6.08224808	      0.75259995	    -12.61871723	     15.35912403	     12.61871723	     -7.16213665	     97.29822562	     18.77457758	     -0.00000052	      0.00000000	     -0.00000071	      0.00000000
      3.82000000	     90.00000023	      0.00000039	     10.00000002	     -0.41405349	      0.35943042	      0.29488772	     -3.66312458	      1.55152668	     -1.55152668	      3.66312458	     -0.74170821	      5.99422488	      2.69436283	     -2.69436283	     -5.99422488	      0.74170821	    -12.66675619	     15.13684450	     12.66675619	     -7.30652440	     97.32138278	     19.21973699	     -0.00000052	      0.00000000	     -0.00000071	      0.00000000
      3.82500000	     90.00000023	      0.00000039	     10.00000002	     -0.41399941	      0.35968874	      0.29468487	     -3.72024457	      1.57572001	     -1.57572001	      3.72024457	     -0.75327385	      6.08769428	      2.73637668	     -2.73637668	     -6.08769428	      0.75327385	    -12.75103443	     15.37287699	     12.75103443	     -7.12401944	     97.29000147	     18.95522426	     -0.00000052	      0.00000000	     -0.00000071	      0.00000000
      3.83000000	     90.00000023	      0.00000039	     10.00000002	     -0.41439272	      0.35904588	      0.29420368	     -3.68975952	      1.56280799	     -1.56280799	      3.68975952	     -0.74710125	      6.03780949	      2.71395381	     -2.71395381	     -6.03780949	      0.74710125	    -12.47866160	     15.24690601	     12.47866160	     -7.14971444	     97.30475721	     19.27491295	     -0.00000052	      0.00000000	     -0.00000071	      0.00000000
      3.83500000	     90.00000023	      0.00000039	     10.00000002	     -0.41432615	      0.35903118	      0.29420359	     -3.68924773	      1.56259122	     -1.56259122	      3.68924773	     -0.74699762	      6.03697201	      2.71357737	     -2.71357737	     -6.03697201	      0.74699762	    -12.62685617	     15.24479118	     12.62685617	     -7.21982636	     97.30338050	     19.29921887	     -0.00000052	      0.00000000	     -0.00000071	      0.00000000
      3.84000000	     90.00000023	      0.00000039	     10.00000002	     -0.41396063	      0.35923676	      0.29432914	     -3.70852164	      1.57075473	     -1.57075473	      3.70852164	     -0.75090019	      6.06851124	      2.72775404	     -2.72775404	     -6.06851124	      0.75090019	    -12.94568592	     15.32443524	     12.94568592	     -7.12767671	     97.30042870	     18.66819363	     -0.00000052	      0.00000000	     -0.00000071	      0.00000000
      3.84500000	     90.00000023	      0.00000039	     10.00000002	     -0.41391392	      0.35919465	      0.29429444	     -3.70897236	      1.57094564	     -1.57094564	      3.70897236	     -0.75099146	      6.06924879	      2.72808556	     -2.72808556	     -6.06924879	      0.75099146	    -13.08509309	     15.32629772	     13.08509309	     -7.11126931	     97.29343139	     18.49438054	     -0.00000052	      0.00000000	     -0.00000071	      0.00000000
      3.85000000	     90.00000023	      0.00000039	     10.00000002	     -0.41391544	      0.35921172	      0.29431904	     -3.71468158	      1.57336379	     -1.57336379	      3.71468158	     -0.75214746	      6.07859117	      2.73228490	     -2.73228490	     -6.07859117	      0.75214746	    -13.02056006	     15.34988946	     13.02056006	     -7.03873617	     97.24704996	     18.74688381	     -0.00000052	      0.00000000	     -0.00000071	      0.00000000
